name rise30.9205peak61.366fall85.3838.mot
datacolumns 19
datarows 23
range 3.07999200000000 3.11665400000000
endheader
time	ground_force1_vx	ground_force1_vy	ground_force1_vz	ground_force1_px	ground_force1_py	ground_force1_pz	ground_force2_vx	ground_force2_vy	ground_force2_vz	ground_force2_px	ground_force2_py	ground_force2_pz	ground_torque1_x	ground_torque1_y	ground_torque1_z	ground_torque2_x	ground_torque2_y	ground_torque2_z	
3.07999200000000	-10.14724200000000	40.41475500000000	-8.70120500000000	0.31696000000000	0.00000000000000	0.10310700000000	-60.83995300000000	794.84217999999998	-49.58989500000000	0.11571200000000	0.00000000000000	-0.07043500000000	0.00000000000000	-4.71338200000000	0.00000000000000	0.00000000000000	-19.07161200000000	0.00000000000000	
3.08165700000000	-11.12769100000000	47.16951200000000	-9.75443700000000	0.32273800000000	0.00000000000000	0.10382700000000	-61.59036200000000	791.86016199999995	-49.21484600000000	0.11473700000000	0.00000000000000	-0.07037300000000	0.00000000000000	-5.37917600000000	0.00000000000000	0.00000000000000	-19.00035100000000	0.00000000000000	
3.08332100000000	-11.91848000000000	53.96231200000000	-10.70118900000000	0.32807100000000	0.00000000000000	0.10448700000000	-62.34962200000000	788.76127099999997	-48.82531600000000	0.11377000000000	0.00000000000000	-0.07030800000000	0.00000000000000	-6.00621500000000	0.00000000000000	0.00000000000000	-18.93023700000000	0.00000000000000	
3.08499400000000	-12.49305700000000	60.70393100000000	-11.51862300000000	0.33301500000000	0.00000000000000	0.10509600000000	-63.11720400000000	785.54352300000005	-48.42116100000000	0.11280900000000	0.00000000000000	-0.07024100000000	0.00000000000000	-6.58016100000000	0.00000000000000	0.00000000000000	-18.86126600000000	0.00000000000000	
3.08665900000000	-12.83622400000000	67.32903100000000	-12.19191700000000	0.33761300000000	0.00000000000000	0.10566100000000	-63.89249900000000	782.20488000000000	-48.00224000000000	0.11185500000000	0.00000000000000	-0.07017000000000	0.00000000000000	-7.09070100000000	0.00000000000000	0.00000000000000	-18.79342000000000	0.00000000000000	
3.08832600000000	-12.94392100000000	73.79801100000000	-12.71432400000000	0.34190300000000	0.00000000000000	0.10618800000000	-64.67481700000000	778.74325499999998	-47.56841400000000	0.11090900000000	0.00000000000000	-0.07009600000000	0.00000000000000	-7.53177100000000	0.00000000000000	0.00000000000000	-18.72666900000000	0.00000000000000	
3.08999100000000	-12.82213900000000	80.09642800000000	-13.08656700000000	0.34591500000000	0.00000000000000	0.10668100000000	-65.46338299999999	775.15651700000001	-47.11954800000000	0.10997100000000	0.00000000000000	-0.07002000000000	0.00000000000000	-7.90140300000000	0.00000000000000	0.00000000000000	-18.66096300000000	0.00000000000000	
3.09165500000000	-12.48519800000000	86.23243900000000	-13.31571800000000	0.34967500000000	0.00000000000000	0.10714500000000	-66.25734000000000	771.44250399999999	-46.65551200000000	0.10904100000000	0.00000000000000	-0.06994000000000	0.00000000000000	-8.20125900000000	0.00000000000000	0.00000000000000	-18.59624100000000	0.00000000000000	
3.09332800000000	-11.95362200000000	92.23282300000000	-13.41375500000000	0.35320700000000	0.00000000000000	0.10758400000000	-67.05574600000000	767.59902499999998	-46.17618800000000	0.10812000000000	0.00000000000000	-0.06985700000000	0.00000000000000	-8.43593200000000	0.00000000000000	0.00000000000000	-18.53242800000000	0.00000000000000	
3.09498700000000	-11.25188500000000	98.13815900000000	-13.39596200000000	0.35653000000000	0.00000000000000	0.10799900000000	-67.85757200000000	763.62387200000001	-45.68146500000000	0.10720800000000	0.00000000000000	-0.06977000000000	0.00000000000000	-8.61214200000000	0.00000000000000	0.00000000000000	-18.46943100000000	0.00000000000000	
3.09665700000000	-10.40621100000000	103.99769700000000	-13.27933700000000	0.35966000000000	0.00000000000000	0.10839500000000	-68.66170700000001	759.51483099999996	-45.17124900000000	0.10630500000000	0.00000000000000	-0.06968100000000	0.00000000000000	-8.73787600000000	0.00000000000000	0.00000000000000	-18.40714500000000	0.00000000000000	
3.09832400000000	-9.44260800000000	109.86440399999999	-13.08114000000000	0.36261200000000	0.00000000000000	0.10877200000000	-69.46695099999999	755.26968699999998	-44.64545900000000	0.10541100000000	0.00000000000000	-0.06958800000000	0.00000000000000	-8.82157900000000	0.00000000000000	0.00000000000000	-18.34545100000000	0.00000000000000	
3.09998900000000	-8.38525800000000	115.79054300000000	-12.81765700000000	0.36539800000000	0.00000000000000	0.10913200000000	-70.27202300000000	750.88623800000005	-44.10403000000000	0.10452800000000	0.00000000000000	-0.06949200000000	0.00000000000000	-8.87145200000000	0.00000000000000	0.00000000000000	-18.28421500000000	0.00000000000000	
3.10165800000000	-7.25530900000000	121.82403400000000	-12.50326200000000	0.36803100000000	0.00000000000000	0.10947700000000	-71.07555600000001	746.36230399999999	-43.54692100000000	0.10365400000000	0.00000000000000	-0.06939200000000	0.00000000000000	-8.89487500000000	0.00000000000000	0.00000000000000	-18.22329000000000	0.00000000000000	
3.10332200000000	-6.07012000000000	128.00576200000000	-12.14978000000000	0.37051900000000	0.00000000000000	0.10980900000000	-71.87610400000000	741.69574000000000	-42.97410900000000	0.10279000000000	0.00000000000000	-0.06929000000000	0.00000000000000	-8.89800500000000	0.00000000000000	0.00000000000000	-18.16251400000000	0.00000000000000	
3.10498800000000	-4.84290600000000	134.36784000000000	-11.76615300000000	0.37287100000000	0.00000000000000	0.11012700000000	-72.67213700000001	736.88444600000003	-42.38559700000000	0.10193700000000	0.00000000000000	-0.06918300000000	0.00000000000000	-8.88553300000000	0.00000000000000	0.00000000000000	-18.10171400000000	0.00000000000000	
3.10665500000000	-3.58276400000000	140.93281099999999	-11.35838100000000	0.37509500000000	0.00000000000000	0.11043500000000	-73.46205100000000	731.92638299999999	-41.78141600000000	0.10109400000000	0.00000000000000	-0.06907400000000	0.00000000000000	-8.86059800000000	0.00000000000000	0.00000000000000	-18.04070500000000	0.00000000000000	
3.10832100000000	-2.29499400000000	147.71367000000001	-10.92969600000000	0.37719800000000	0.00000000000000	0.11073100000000	-74.24416500000000	726.81958299999997	-41.16162200000000	0.10026200000000	0.00000000000000	-0.06896100000000	0.00000000000000	-8.82483300000000	0.00000000000000	0.00000000000000	-17.97928900000000	0.00000000000000	
3.10999300000000	-0.98164500000000	154.71455000000000	-10.48090400000000	0.37918600000000	0.00000000000000	0.11101700000000	-75.01672499999999	721.56216400000005	-40.52630400000000	0.09944100000000	0.00000000000000	-0.06884500000000	0.00000000000000	-8.77852300000000	0.00000000000000	0.00000000000000	-17.91725500000000	0.00000000000000	
3.11165900000000	0.35780200000000	161.93190300000001	-10.01084400000000	0.38106400000000	0.00000000000000	0.11129400000000	-75.77791000000001	716.15234799999996	-39.87558100000000	0.09863100000000	0.00000000000000	-0.06872500000000	0.00000000000000	-8.72083400000000	0.00000000000000	0.00000000000000	-17.85438600000000	0.00000000000000	
3.11332400000000	1.72568500000000	169.35599800000000	-9.51691800000000	0.38283700000000	0.00000000000000	0.11156100000000	-76.52583400000000	710.58847200000002	-39.20960800000000	0.09783200000000	0.00000000000000	-0.06860200000000	0.00000000000000	-8.65008600000000	0.00000000000000	0.00000000000000	-17.79045000000000	0.00000000000000	
3.11498800000000	3.12542200000000	176.97255699999999	-8.99561800000000	0.38451000000000	0.00000000000000	0.11182000000000	-77.25855300000001	704.86900600000001	-38.52857200000000	0.09704500000000	0.00000000000000	-0.06847500000000	0.00000000000000	-8.56404600000000	0.00000000000000	0.00000000000000	-17.72520900000000	0.00000000000000	
3.11665400000000	4.56081800000000	184.76439300000001	-8.44303000000000	0.38608600000000	0.00000000000000	0.11207100000000	-77.97406599999999	698.99257100000000	-37.83269700000000	0.09626800000000	0.00000000000000	-0.06834600000000	0.00000000000000	-8.46020700000000	0.00000000000000	0.00000000000000	-17.65841600000000	0.00000000000000	
